#!OML:ASF F:\twosubjects\two\Thursday\Session 1\justin.ASF
:FULLY-SPECIFIED
:DEGREES
372
root 5.47857 17.278 -7.00849 7.30104 10.6026 -3.63913
lowerback 18.6982 -0.609938 -3.29395
upperback 7.73097 -1.22518 1.92571
thorax -2.03085 -0.681407 4.15642
lowerneck 3.07103 -19.5086 -22.0451
upperneck -14.6108 -25.9025 31.8848
head 2.86199 -13.6571 11.3642
rclavicle -1.39149e-014 1.27222e-014
rhumerus -13.1246 -36.8118 -19.9029
rradius 35.6397
rwrist 2.62684
rhand -40.1595 25.9414
rfingers 7.12502
rthumb -13.1216 -3.62579
lclavicle -1.39149e-014 1.27222e-014
lhumerus -40.3892 1.64585 32.4576
lradius 29.193
lwrist -43.9009
lhand -19.4361 51.8652
lfingers 7.12502
lthumb 6.88417 81.7333
rfemur -28.6551 -4.20411 17.9681
rtibia 45.6459
rfoot -23.8193 -11.9997
rtoes -9.97378
lfemur -33.1732 8.13291 -3.72245
ltibia 54.8568
lfoot -11.4841 -6.13317
ltoes -24.3386
373
root 5.4824 17.2561 -7.06384 7.56118 10.7519 -3.66623
lowerback 18.8093 -0.808162 -3.40247
upperback 7.4874 -1.49985 2.08121
thorax -2.31365 -0.811134 4.44669
lowerneck 2.19325 -19.6139 -22.0124
upperneck -13.8237 -26.0232 31.4271
head 3.15847 -13.6008 11.0553
rclavicle 2.18663e-014 1.03368e-014
rhumerus -13.0527 -36.2105 -20.0432
rradius 35.6475
rwrist 2.5978
rhand -40.3923 25.8529
rfingers 7.12502
rthumb -13.346 -3.69972
lclavicle 2.18663e-014 1.03368e-014
lhumerus -41.4888 2.23812 32.5742
lradius 29.0595
lwrist -44.5782
lhand -19.4073 51.6414
lfingers 7.12502
lthumb 6.91201 81.5085
rfemur -29.2122 -4.22595 17.9497
rtibia 45.7037
rfoot -23.6438 -11.952
rtoes -11.8946
lfemur -32.0453 8.46186 -4.00854
ltibia 55.2186
lfoot -12.3428 -6.79905
ltoes -27.7129
374
root 5.48679 17.2537 -7.1173 8.00048 10.8241 -3.6127
lowerback 18.5832 -0.921729 -3.45206
upperback 7.28918 -1.65196 2.09854
thorax -2.39135 -0.882381 4.52014
lowerneck 1.88837 -19.6627 -21.5253
upperneck -13.8204 -26.0035 31.0333
head 3.05878 -13.5706 10.8544
rclavicle 2.36554e-014 -1.70955e-014
rhumerus -13.5004 -35.9039 -19.8587
rradius 35.7332
rwrist 2.67542
rhand -40.3198 25.6495
rfingers 7.12502
rthumb -13.2761 -3.90765
lclavicle 2.36554e-014 -1.70955e-014
lhumerus -42.2263 2.77947 32.5321
lradius 28.9252
lwrist -44.9009
lhand -19.5379 51.4682
lfingers 7.12502
lthumb 6.78591 81.3394
rfemur -29.9961 -4.46824 17.9084
rtibia 45.8924
rfoot -23.5021 -11.8019
rtoes -13.3522
lfemur -31.2172 8.68182 -4.36343
ltibia 55.336
lfoot -12.2407 -7.47892
ltoes -28.0087
375
root 5.5046 17.2531 -7.16154 8.42169 10.5632 -3.47983
lowerback 18.2334 -0.823005 -3.46853
upperback 7.12164 -1.52548 1.98833
thorax -2.40569 -0.815885 4.37875
lowerneck 2.29022 -19.6872 -21.3606
upperneck -14.3009 -26.0164 31.162
head 2.86404 -13.6362 10.9385
rclavicle -2.74323e-014 1.03368e-014
rhumerus -14.4605 -35.8366 -19.2372
rradius 35.8484
rwrist 2.92527
rhand -40.1389 25.3349
rfingers 7.12502
rthumb -13.1017 -4.23356
lclavicle -2.74323e-014 1.03368e-014
lhumerus -42.6244 2.74212 32.6566
lradius 28.639
lwrist -45.1526
lhand -20.4731 51.5461
lfingers 7.12502
lthumb 5.88309 81.4444
rfemur -30.7577 -4.83896 17.7552
rtibia 46.0936
rfoot -23.3377 -11.345
rtoes -13.8921
lfemur -30.2467 9.10605 -4.86758
ltibia 55.2557
lfoot -12.2358 -8.10378
ltoes -27.8922
376
root 5.53395 17.2496 -7.20042 8.72058 10.1595 -3.20917
lowerback 18.0288 -0.726528 -3.58795
upperback 6.97577 -1.42498 1.8172
thorax -2.467 -0.762228 4.24125
lowerneck 2.56791 -19.6351 -21.5499
upperneck -14.5305 -25.9698 31.5414
head 2.84482 -13.6517 11.1253
rclavicle 5.96354e-016 1.07344e-014
rhumerus -15.1593 -35.7965 -18.7732
rradius 35.876
rwrist 3.01969
rhand -39.8994 25.501
rfingers 7.12502
rthumb -12.8708 -4.08217
lclavicle 5.96354e-016 1.07344e-014
lhumerus -43.2794 2.27448 32.9753
lradius 28.5366
lwrist -44.9081
lhand -21.1592 52.1426
lfingers 7.12502
lthumb 5.22066 82.0583
rfemur -31.307 -5.22725 17.3961
rtibia 46.2215
rfoot -23.1537 -10.7523
rtoes -14.4289
lfemur -28.9875 9.48731 -5.58593
ltibia 54.9821
lfoot -12.8245 -8.33254
ltoes -28.8948
